<?xml version="1.0" encoding="UTF-8"?>
<svg version="1.1" xmlns="http://www.w3.org/2000/svg" width="152" height="152">
<path d="M0 0 C12.42832345 10.85793896 22.79161348 25.36103994 25.25 42.0234375 C25.42241211 42.82193115 25.59482422 43.6204248 25.77246094 44.44311523 C29.22434611 63.09494261 25.54581863 81.30782864 15.25 97.0234375 C12.48552927 100.63555082 9.51573449 103.86192858 6.25 107.0234375 C5.62609375 107.64476562 5.0021875 108.26609375 4.359375 108.90625 C-6.07276482 118.68090201 -16.98255536 123.4003614 -30.75 126.0234375 C-31.73097656 126.21550781 -32.71195312 126.40757812 -33.72265625 126.60546875 C-45.31049964 128.20533874 -56.49820106 127.03880794 -67.75 124.0234375 C-68.66523437 123.806875 -69.58046875 123.5903125 -70.5234375 123.3671875 C-75.94774027 121.96521386 -80.10145505 119.79649803 -84.64453125 116.5234375 C-86.76013888 114.96654126 -86.76013888 114.96654126 -89.19140625 113.609375 C-92.0263357 111.85215155 -94.39177196 109.87347057 -96.875 107.6484375 C-97.72320312 106.89820313 -98.57140625 106.14796875 -99.4453125 105.375 C-102.08970092 102.67682741 -104.75 99.96215132 -104.75 96.0234375 C-105.41 96.0234375 -106.07 96.0234375 -106.75 96.0234375 C-117.04069937 76.67692269 -121.06119833 57.94889492 -114.87890625 36.6796875 C-114.50636719 35.473125 -114.13382812 34.2665625 -113.75 33.0234375 C-113.44964844 32.0025 -113.14929688 30.9815625 -112.83984375 29.9296875 C-106.92302303 11.69256044 -92.13635681 -0.63803632 -75.9140625 -9.53125 C-52.41972615 -21.17507066 -19.96410861 -16.47038961 0 0 Z M-27.75 13.0234375 C-28.26949219 13.61511719 -28.78898437 14.20679687 -29.32421875 14.81640625 C-33.02509594 19.00982162 -36.7436242 23.11722109 -40.75 27.0234375 C-46.06989315 32.19115655 -46.06989315 32.19115655 -50.9375 37.7734375 C-52.75 40.0234375 -52.75 40.0234375 -55.0625 41.8359375 C-59.85900214 45.74006715 -63.62156922 50.65537036 -67.5625 55.3984375 C-69.75 58.0234375 -69.75 58.0234375 -71.75 60.0234375 C-63.5 60.0234375 -55.25 60.0234375 -46.75 60.0234375 C-49.81084039 68.35177067 -52.87588442 76.50717529 -56.6484375 84.5390625 C-58.30949381 88.2852746 -59.53198634 92.11297258 -60.75 96.0234375 C-57.50172817 94.62625507 -55.63620545 93.03770645 -53.375 90.3359375 C-52.77171875 89.62566406 -52.1684375 88.91539063 -51.546875 88.18359375 C-50.41036692 86.81731338 -49.27482472 85.45022848 -48.140625 84.08203125 C-45.96879535 81.49038917 -43.96891033 79.19744314 -41.3125 77.0859375 C-36.62300791 73.31146826 -32.94651579 68.51355522 -29.1875 63.8359375 C-26.75 61.0234375 -26.75 61.0234375 -23.6875 58.5234375 C-20.54495288 55.84892931 -18.86321459 53.51836932 -16.75 50.0234375 C-18.39526209 49.85122315 -20.04125911 49.68602919 -21.6875 49.5234375 C-22.60402344 49.430625 -23.52054688 49.3378125 -24.46484375 49.2421875 C-28.56532393 48.9691472 -32.64229634 48.98230905 -36.75 49.0234375 C-36.55365967 48.45012695 -36.35731934 47.87681641 -36.1550293 47.28613281 C-28.82581481 30.35053923 -28.82581481 30.35053923 -27.75 13.0234375 Z " fill="#0F72FE" transform="translate(120.75,21.9765625)"/>
<path d="" fill="#0000FF" transform="translate(0,0)"/>
<path d="" fill="#0000FF" transform="translate(0,0)"/>
</svg>
